<?xml version="1.0" encoding="UTF-8" standalone="no"?>
<!-- Created with Inkscape (http://www.inkscape.org/) -->

<svg
   width="210mm"
   height="297mm"
   viewBox="0 0 210 297"
   version="1.1"
   id="svg5"
   xmlns="http://www.w3.org/2000/svg"
   xmlns:svg="http://www.w3.org/2000/svg">
  <defs
     id="defs2" />
  <g
     id="layer1">
    <path
       id="path67"
       style="fill:none;stroke:#61dafb;stroke-width:2.17398"
       d="M 122.73401,116.54069 A 45.364052,45.364052 0 0 1 77.369959,161.90475 45.364052,45.364052 0 0 1 32.005908,116.54069 45.364052,45.364052 0 0 1 77.369959,71.176638 45.364052,45.364052 0 0 1 122.73401,116.54069 Z" />
    <path
       id="path67-4"
       style="fill:none;stroke:#61dafb;stroke-width:1.9805"
       d="M 118.69664,116.54069 A 41.326679,41.326679 0 0 1 77.369959,157.86737 41.326679,41.326679 0 0 1 36.04328,116.54069 41.326679,41.326679 0 0 1 77.369959,75.214011 41.326679,41.326679 0 0 1 118.69664,116.54069 Z" />
    <path
       d="M 101.10367,139.93844 H 92.655875 L 82.518523,126.15197 q -1.393886,-1.92049 -2.703294,-3.25799 -1.309408,-1.37178 -2.703293,-2.22915 -1.351648,-0.85737 -2.956728,-1.23461 -1.562842,-0.41154 -3.548074,-0.41154 h -5.828976 v 20.91976 H 57.682012 V 90.759866 h 18.078276 q 3.970463,0 7.307342,0.823079 3.379117,0.788775 5.828976,2.434915 2.4921,1.646149 3.885985,4.115368 1.393887,2.434912 1.393887,5.727202 0,2.5721 -0.971497,4.73267 -0.929257,2.12628 -2.703294,3.80671 -1.731797,1.68044 -4.223896,2.88075 -2.44986,1.16602 -5.533304,1.81762 v 0.13718 q 1.520603,0.54872 2.618815,1.2689 1.140452,0.6859 2.154188,1.64614 1.013734,0.96026 1.985231,2.19487 1.013735,1.20031 2.238664,2.81216 z M 64.778158,95.97266 v 17.83323 h 9.630484 q 2.661054,0 4.899719,-0.6516 2.280905,-0.6516 3.928224,-1.85191 1.64732,-1.23461 2.576578,-2.98363 0.929257,-1.78333 0.929257,-3.97818 0,-3.9439 -3.167923,-6.138753 -3.125683,-2.229157 -9.081378,-2.229157 z"
       style="font-size:77.9471px;line-height:0px;font-family:Gadugi;-inkscape-font-specification:Gadugi;fill:none;stroke:#61dafb;stroke-width:5.00981"
       id="path3716" />
  </g>
</svg>
